REM DIRINDEX 1\2,1\4,1\5,1\6,1\7,1\3\8,1\3\9,1\3\10
REM DIRNAME folder01,folder02,folder03,folder04,folder05,folder06,folder07,folder08,folder09,folder10
TITLE ""
FILE "DB4500_5th_3B_18.mp3" MP3
  TRACK 01 AUDIO
    TITLE "0:"
    INDEX 01 00:00:00
  TRACK 02 AUDIO
    TITLE "8:cjc113_2449"
    INDEX 01 00:00:03
  TRACK 03 AUDIO
    TITLE "0:"
    INDEX 01 00:01:11
  TRACK 04 AUDIO
    TITLE "9:cjc113_2450"
    INDEX 01 00:01:32
  TRACK 05 AUDIO
    TITLE "0:"
    INDEX 01 00:02:47
  TRACK 06 AUDIO
    TITLE "10:cjc113_2451"
    INDEX 01 00:02:71
  TRACK 07 AUDIO
    TITLE "0:"
    INDEX 01 00:05:67
  TRACK 08 AUDIO
    TITLE "8:cjc113_2452"
    INDEX 01 00:06:41
  TRACK 09 AUDIO
    TITLE "0:"
    INDEX 01 00:09:38
  TRACK 10 AUDIO
    TITLE "9:cjc113_2453"
    INDEX 01 00:09:59
  TRACK 11 AUDIO
    TITLE "0:"
    INDEX 01 00:10:66
  TRACK 12 AUDIO
    TITLE "10:cjc113_2454"
    INDEX 01 00:11:13
  TRACK 13 AUDIO
    TITLE "0:"
    INDEX 01 00:14:47
  TRACK 14 AUDIO
    TITLE "8:cjc113_2455"
    INDEX 01 00:15:19
  TRACK 15 AUDIO
    TITLE "0:"
    INDEX 01 00:16:30
  TRACK 16 AUDIO
    TITLE "9:cjc113_2456"
    INDEX 01 00:16:51
  TRACK 17 AUDIO
    TITLE "0:"
    INDEX 01 00:17:61
  TRACK 18 AUDIO
    TITLE "10:cjc113_2457"
    INDEX 01 00:18:07
  TRACK 19 AUDIO
    TITLE "0:"
    INDEX 01 00:22:38
  TRACK 20 AUDIO
    TITLE "8:cjc113_2458"
    INDEX 01 00:23:10
  TRACK 21 AUDIO
    TITLE "0:"
    INDEX 01 00:24:41
  TRACK 22 AUDIO
    TITLE "9:cjc113_2459"
    INDEX 01 00:24:63
  TRACK 23 AUDIO
    TITLE "0:"
    INDEX 01 00:26:11
  TRACK 24 AUDIO
    TITLE "10:cjc113_2460"
    INDEX 01 00:26:34
  TRACK 25 AUDIO
    TITLE "0:"
    INDEX 01 00:30:24
  TRACK 26 AUDIO
    TITLE "8:cjc113_2461"
    INDEX 01 00:30:65
  TRACK 27 AUDIO
    TITLE "0:"
    INDEX 01 00:32:21
  TRACK 28 AUDIO
    TITLE "9:cjc113_2462"
    INDEX 01 00:32:43
  TRACK 29 AUDIO
    TITLE "0:"
    INDEX 01 00:33:52
  TRACK 30 AUDIO
    TITLE "10:cjc113_2463"
    INDEX 01 00:33:73
  TRACK 31 AUDIO
    TITLE "0:"
    INDEX 01 00:36:68
  TRACK 32 AUDIO
    TITLE "8:cjc113_2464"
    INDEX 01 00:37:40
  TRACK 33 AUDIO
    TITLE "0:"
    INDEX 01 00:38:57
  TRACK 34 AUDIO
    TITLE "9:cjc113_2465"
    INDEX 01 00:39:03
  TRACK 35 AUDIO
    TITLE "0:"
    INDEX 01 00:40:13
  TRACK 36 AUDIO
    TITLE "10:cjc113_2466"
    INDEX 01 00:40:34
  TRACK 37 AUDIO
    TITLE "0:"
    INDEX 01 00:43:54
  TRACK 38 AUDIO
    TITLE "8:cjc113_2467"
    INDEX 01 00:44:26
  TRACK 39 AUDIO
    TITLE "0:"
    INDEX 01 00:46:72
  TRACK 40 AUDIO
    TITLE "9:cjc113_2468"
    INDEX 01 00:47:21
  TRACK 41 AUDIO
    TITLE "0:"
    INDEX 01 00:49:02
  TRACK 42 AUDIO
    TITLE "10:cjc113_2469"
    INDEX 01 00:49:25
  TRACK 43 AUDIO
    TITLE "0:"
    INDEX 01 00:52:41
  TRACK 44 AUDIO
    TITLE "10:cjc113_2470"
    INDEX 01 00:53:15
  TRACK 45 AUDIO
    TITLE "0:"
    INDEX 01 00:56:43
  TRACK 46 AUDIO
    TITLE "8:cjc113_2471"
    INDEX 01 00:57:15
  TRACK 47 AUDIO
    TITLE "0:"
    INDEX 01 00:58:26
  TRACK 48 AUDIO
    TITLE "9:cjc113_2472"
    INDEX 01 00:58:48
  TRACK 49 AUDIO
    TITLE "0:"
    INDEX 01 01:00:21
  TRACK 50 AUDIO
    TITLE "10:cjc113_2473"
    INDEX 01 01:00:43
  TRACK 51 AUDIO
    TITLE "0:"
    INDEX 01 01:05:17
  TRACK 52 AUDIO
    TITLE "8:cjc113_2474"
    INDEX 01 01:05:60
  TRACK 53 AUDIO
    TITLE "0:"
    INDEX 01 01:07:08
  TRACK 54 AUDIO
    TITLE "9:cjc113_2475"
    INDEX 01 01:07:29
  TRACK 55 AUDIO
    TITLE "0:"
    INDEX 01 01:09:09
  TRACK 56 AUDIO
    TITLE "10:cjc113_2476"
    INDEX 01 01:09:26
  TRACK 57 AUDIO
    TITLE "0:"
    INDEX 01 01:12:15
  TRACK 58 AUDIO
    TITLE "10:cjc113_2477"
    INDEX 01 01:12:28
  TRACK 59 AUDIO
    TITLE "0:"
    INDEX 01 01:16:67
  TRACK 60 AUDIO
    TITLE "8:cjc113_2478"
    INDEX 01 01:17:41
  TRACK 61 AUDIO
    TITLE "0:"
    INDEX 01 01:18:56
  TRACK 62 AUDIO
    TITLE "9:cjc113_2479"
    INDEX 01 01:19:03
  TRACK 63 AUDIO
    TITLE "0:"
    INDEX 01 01:20:49
  TRACK 64 AUDIO
    TITLE "10:cjc113_2480"
    INDEX 01 01:20:71
  TRACK 65 AUDIO
    TITLE "0:"
    INDEX 01 01:23:60
  TRACK 66 AUDIO
    TITLE "8:cjc113_2481"
    INDEX 01 01:24:36
  TRACK 67 AUDIO
    TITLE "0:"
    INDEX 01 01:25:68
  TRACK 68 AUDIO
    TITLE "9:cjc113_2482"
    INDEX 01 01:26:15
  TRACK 69 AUDIO
    TITLE "0:"
    INDEX 01 01:27:63
  TRACK 70 AUDIO
    TITLE "10:cjc113_2483"
    INDEX 01 01:28:10
  TRACK 71 AUDIO
    TITLE "0:"
    INDEX 01 01:32:33
